<svg id="Layer_1" data-name="Layer 1" xmlns="http://www.w3.org/2000/svg" viewBox="0 0 198.47 78.92"><defs><style>.cls-1{fill:#151515;}</style></defs><title>logo</title><path d="M316.79,320.71a13.82,13.82,0,0,0,.68,3.55,7.16,7.16,0,0,0,3.37,3.86,12.3,12.3,0,0,0,6,1.41,18.06,18.06,0,0,0,6.92-1.5,33.18,33.18,0,0,0,4.86-2.63L336.78,334l-1.91.35a39.18,39.18,0,0,1-7.67.79q-8.22,0-13.1-4a13.21,13.21,0,0,1-4.86-10.75,14.88,14.88,0,0,1,4.45-11.08A15.54,15.54,0,0,1,325,304.92c6.24,0,10.57,2.69,12.95,8.06a23.6,23.6,0,0,1,1.64,7.73Zm14.65-5.39a6.74,6.74,0,0,0-6.82-4.86,6.89,6.89,0,0,0-7.09,4.86Z" transform="translate(-309.24 -302.49)"/><path d="M380.34,334.33c1.38-.82,2.08-2.34,2.08-4.57V316.29a6.6,6.6,0,0,0-1.14-4.34,5.25,5.25,0,0,0-4.19-1.67,6.73,6.73,0,0,0-4.78,1.76,5.75,5.75,0,0,0-1.87,4.48v13.24c0,2.2.7,3.72,2.08,4.57H361.18q2.11-1.23,2.11-4.57V316.29a6.6,6.6,0,0,0-1.14-4.34,5.25,5.25,0,0,0-4.19-1.67,6.81,6.81,0,0,0-4.81,1.76,5.75,5.75,0,0,0-1.87,4.48v13.24q0,3.3,2.11,4.57H342.11c1.4-.82,2.11-2.34,2.11-4.57v-18.4a5.12,5.12,0,0,0-1.56-4l8.62-2.58v2.52a13.29,13.29,0,0,1,7.7-2.34,11.57,11.57,0,0,1,9.17,4,18.91,18.91,0,0,1,2.93-2.22,13.6,13.6,0,0,1,7-1.82c4.14,0,7.21,1.26,9.29,3.81a9.8,9.8,0,0,1,2,5.24,49.65,49.65,0,0,1,.21,5.72v10.07q0,3.3,2.11,4.57Z" transform="translate(-309.24 -302.49)"/><path d="M402.22,320.71a13.82,13.82,0,0,0,.68,3.55,7.16,7.16,0,0,0,3.37,3.86,12.3,12.3,0,0,0,6,1.41,18.06,18.06,0,0,0,6.92-1.5,33.18,33.18,0,0,0,4.86-2.63L422.21,334l-1.91.35a39.26,39.26,0,0,1-7.67.79q-8.22,0-13.1-4a13.21,13.21,0,0,1-4.86-10.75,14.88,14.88,0,0,1,4.45-11.08,15.54,15.54,0,0,1,11.28-4.36c6.24,0,10.57,2.69,13,8.06a23.6,23.6,0,0,1,1.64,7.73Zm14.65-5.39a6.74,6.74,0,0,0-6.82-4.86,6.89,6.89,0,0,0-7.09,4.86Z" transform="translate(-309.24 -302.49)"/><path d="M450.93,312.68c-1.55-.79-7-1.2-8.16-1.2-3.72,0-6.06,2.79-6.06,7.33v10.95q0,3.3,2.11,4.57H427.54c1.4-.82,2.11-2.34,2.11-4.57v-18.4a5.12,5.12,0,0,0-1.56-4l8.62-2.58v3.08a11,11,0,0,1,7.38-2.58c.88,0,5.91-.24,8.91,1.76Z" transform="translate(-309.24 -302.49)"/><path d="M479,307.88c-.5,0-1-.06-1.52-.06a18,18,0,0,0-6.24,1.26,10,10,0,0,1,2.78,7.27,10.41,10.41,0,0,1-4,8.37,15.63,15.63,0,0,1-10.2,3.31,18.41,18.41,0,0,1-6.12-1,17.81,17.81,0,0,1-3.11-1.55,2,2,0,0,0-.41,1.14c0,2.14,2.87,3.51,7.36,3.54l9.55.06a9,9,0,0,1,5.92,2,6.31,6.31,0,0,1,2.25,5c0,3.05-1.58,5.54-4.74,7.5s-7.18,3-12.07,3c-4.31,0-7.8-.85-10.46-2.58a7.69,7.69,0,0,1-4-6.73,6.78,6.78,0,0,1,2.64-5.34,6.46,6.46,0,0,1-3-5.39,6.83,6.83,0,0,1,.65-3.22,9.72,9.72,0,0,1,2.6-2.78,10.16,10.16,0,0,1-1.55-5.16,10.33,10.33,0,0,1,4-8.29,15,15,0,0,1,10-3.31,25,25,0,0,1,5.62.73l8.59-3.16Zm-14.24,27.65-6.24.12q-2.67,0-6.24-.35a4.13,4.13,0,0,0-1.32,2.87q0,4.35,8,4.34a15.35,15.35,0,0,0,6.71-1.23c1.67-.79,2.52-1.91,2.52-3.28Q468.16,335.45,464.73,335.53Zm-.2-23.4a7.25,7.25,0,0,0-5-1.73,7,7,0,0,0-4.89,1.67,5.37,5.37,0,0,0-1.88,4.28,5.75,5.75,0,0,0,1.9,4.45,7.27,7.27,0,0,0,5,1.73,7.16,7.16,0,0,0,4.93-1.7,5.84,5.84,0,0,0,0-8.7Z" transform="translate(-309.24 -302.49)"/><path d="M485,320.71a13.84,13.84,0,0,0,.67,3.55,7.16,7.16,0,0,0,3.37,3.86,12.31,12.31,0,0,0,6,1.41,18,18,0,0,0,6.91-1.5,32.19,32.19,0,0,0,4.86-2.63L504.93,334l-1.91.35a39.18,39.18,0,0,1-7.67.79q-8.22,0-13.1-4a13.21,13.21,0,0,1-4.86-10.75,14.88,14.88,0,0,1,4.45-11.08,15.54,15.54,0,0,1,11.28-4.36c6.24,0,10.58,2.69,12.95,8.06a23.34,23.34,0,0,1,1.64,7.73Zm14.65-5.39a6.76,6.76,0,0,0-6.83-4.86,6.89,6.89,0,0,0-7.09,4.86Z" transform="translate(-309.24 -302.49)"/><path class="cls-1" d="M431.85,359.46c.08-1.28-.33-2-1-2.26-3-1.06-7.1,6.58-5.83,9.22,1.46,3.09,6.43-3.32,7.34-5.07.73-2.9,2.14-8.42,3.29-12.86.6-2.31,2-7.2,5.12-7.08,1.65.07,2.88,2.64,1.32,6.26a49.44,49.44,0,0,1-7.83,12.48c-.31,1.27-2,7.11-.48,8.09,1.2.74,3.72-1.46,5.16-3a11.56,11.56,0,0,0,.91-1.08c.05-.07.2.15.36.36a11.58,11.58,0,0,1-.88,1c-1.66,1.7-4,3.4-5.36,3.45-2.88.1-2.44-3.91-2.06-5.83a2.49,2.49,0,0,0,.07-.29c-1.08,1.49-4,5.19-6.38,4.73-1.68-.31-2.84-2.09-2.38-4.44a11.92,11.92,0,0,1,4.25-6.5c2.61-2,5.66-.82,4.85,2.76C432.17,359.94,431.85,359.5,431.85,359.46Zm2.67-.51a48.4,48.4,0,0,0,7-11.54c1.18-2.91.65-4.56-.31-4.56-2.26,0-3.65,4.2-4.1,5.88C435.89,353.48,435.17,356.34,434.52,359Z" transform="translate(-309.24 -302.49)"/><path class="cls-1" d="M442.82,357.8c-.45,1.37-2.54,8.09-1.27,9.19.7.63,1.94.51,3.91-1.7.56-.65,1-1.2,1.54-2,.05-.07.17.12.33.34-.43.57-.93,1.29-1.51,1.94-1.34,1.49-3,2.76-4.73,2-2.78-1.15-.38-7.58.2-10.25C441.53,356.24,442.92,357.56,442.82,357.8Zm.53-2.47c-.62.91-1.27.48-1.27-.31,0-1.4,1.05-4.49,2.21-3.1C445,352.71,443.83,354.61,443.35,355.33Z" transform="translate(-309.24 -302.49)"/><path class="cls-1" d="M462.62,364.33c.05-.07.2.14.36.36-2.2,2.64-3.62,3.5-6.74,5-1.18,5.56-2.23,11.2-5.76,11.66-4.42.55-4.3-4.39-2.28-7,1.49-1.95,4.05-3.37,6.5-4.54.53-2.52.77-4.83,1.35-7.37-.77,1.08-4,5.59-6.65,5.09-1.68-.31-2.83-2.09-2.35-4.44a11.77,11.77,0,0,1,4.22-6.51c2.62-2,5.67-.81,4.85,2.76-.12.48-.43.05-.43,0,.07-1.27-.34-2-1-2.25-3-1.06-7.11,6.57-5.86,9.21,1.51,3.2,6.75-3.72,7.42-5.23.14-.29,1.54.51,1.49,1,0,.16-.7,3-1.39,7A15.11,15.11,0,0,0,462.62,364.33Zm-14,16.2c2.93,1.49,4.8-4.54,6-10-2.31,1.15-4.66,2.5-6,4.3C447.53,376.28,446.61,379.52,448.58,380.53Z" transform="translate(-309.24 -302.49)"/><path class="cls-1" d="M465.55,357.8c-.46,1.37-2.54,8.09-1.27,9.19.69.63,1.94.51,3.91-1.7.55-.65,1-1.2,1.54-2,0-.07.16.12.33.34-.43.57-.93,1.29-1.51,1.94-1.34,1.49-3,2.76-4.73,2-2.78-1.15-.38-7.58.19-10.25C464.25,356.24,465.65,357.56,465.55,357.8Zm.53-2.47c-.63.91-1.27.48-1.27-.31,0-1.4,1.05-4.49,2.2-3.1C467.71,352.71,466.56,354.61,466.08,355.33Z" transform="translate(-309.24 -302.49)"/><path class="cls-1" d="M475.05,348.58c-.12.34-.31,1.06-1.2,4.49,2.07.17,2.76.29,3.58,0,.55-.24.12.33-.31.48-.87.29-1.47.21-3.41.07-.82,3.1-2.33,8.81-2.52,9.7-.24,1.08-.86,4.05-.05,4.77s2.88-.67,4.71-2.78c.26-.31.5-.58.74-.89.05-.07.22.12.36.34-.24.28-.48.57-.74.86-1.78,1.92-4,3.65-5.52,3.12-1.9-.7-1.32-3.94-1-5.5.19-.84,1.68-6.6,2.49-9.76a22.62,22.62,0,0,0-2.76-.29c-.76.05.12-.31.22-.31a8.15,8.15,0,0,1,2.69.09c.89-3.45,1.05-4.2,1.17-4.77C473.76,347,475.15,348.32,475.05,348.58Z" transform="translate(-309.24 -302.49)"/><path class="cls-1" d="M478.41,366.46c1.52,3.17,6.75-3.74,7.42-5.23.12-.31,1.63.51,1.46,1-2.83,8.55,1,6.89,4.21,3.15.24-.32.52-.65.79-1,0-.08.14.19.29.43-1.88,2.23-4.56,4.75-6.29,4.13-2.52-.89-.87-5.38-.65-6.36-.77,1.08-4,5.59-6.65,5.08-1.68-.31-2.83-2.08-2.38-4.44a12,12,0,0,1,4.25-6.5c2.62-2,5.67-.82,4.85,2.76-.12.48-.43.07-.43,0,.07-1.27-.34-2-1-2.26C481.27,356.17,477.14,363.82,478.41,366.46Z" transform="translate(-309.24 -302.49)"/><path class="cls-1" d="M492.17,363.13c.21-1.13,2.23-8.86,3.74-14.71.58-2.33,2-7.23,5.11-7.09,1.63.05,2.55,2.38,1.35,6.15a48.11,48.11,0,0,1-8.72,15.77,10,10,0,0,0-.09,4.22c.74,2.16,3.91-.45,5.69-2.28a13.78,13.78,0,0,0,1-1.25c.05-.07.19.15.36.36-.27.34-.6.77-1,1.2-1.46,1.54-3.74,3.39-5.42,3.46C491.35,369.08,491.76,365.05,492.17,363.13Zm5.25-14.47c-1.25,4.75-2.83,10.77-3.48,13.39a47,47,0,0,0,7.87-14.72c1-3,.65-4.56-.31-4.56C499.27,342.77,497.85,347,497.42,348.66Z" transform="translate(-309.24 -302.49)"/></svg>