<svg version="1.1" id="Layer_1" xmlns="http://www.w3.org/2000/svg" xmlns:xlink="http://www.w3.org/1999/xlink" x="0px" y="0px"
	 width="100%" viewBox="0 0 1200 1200" enable-background="new 0 0 1200 1200" xml:space="preserve">
<path fill="#FE2205" opacity="1.000000" stroke="none" 
	d="
M552.000000,0.999996 
	C584.354248,1.000000 616.708435,1.000000 649.341797,1.408420 
	C654.233093,2.542825 658.831421,3.374930 663.459900,3.974757 
	C676.936279,5.721233 690.612427,6.479766 703.867432,9.260038 
	C727.896179,14.300141 751.976013,19.513477 775.491943,26.484804 
	C812.249023,37.381466 847.667786,51.900005 881.526184,70.098289 
	C906.870544,83.720428 931.210083,98.836739 954.535889,115.717514 
	C978.167419,132.819443 1000.451904,151.503235 1021.153564,171.943329 
	C1035.471069,186.079956 1048.878662,201.213333 1061.865601,216.599594 
	C1073.241577,230.077179 1083.874023,244.236542 1094.110474,258.610596 
	C1114.324463,286.994873 1131.657349,317.121185 1145.906372,348.934540 
	C1152.689941,364.079773 1159.214355,379.383698 1164.925415,394.957062 
	C1174.678345,421.551758 1183.000977,448.613647 1188.241089,476.526001 
	C1190.827393,490.302673 1193.755493,504.027313 1195.873291,517.875793 
	C1197.459351,528.247253 1197.951904,538.783875 1199.077026,549.231262 
	C1199.182739,550.211853 1200.334106,551.079773 1201.000000,552.000000 
	C1201.000000,584.354248 1201.000000,616.708435 1200.591553,649.341858 
	C1199.457153,654.233154 1198.624878,658.831482 1198.025146,663.459961 
	C1196.278687,676.936340 1195.520264,690.612488 1192.740112,703.867493 
	C1187.699951,727.896240 1182.486694,751.976196 1175.515381,775.492126 
	C1164.618774,812.249146 1150.099854,847.667725 1131.901733,881.526123 
	C1118.279663,906.870422 1103.163452,931.209900 1086.282715,954.535706 
	C1069.180786,978.167236 1050.496948,1000.451660 1030.056885,1021.153381 
	C1015.920288,1035.470947 1000.786804,1048.878540 985.400513,1061.865479 
	C971.922852,1073.241577 957.763489,1083.873779 943.389526,1094.110352 
	C915.005310,1114.324585 884.878540,1131.656860 853.065491,1145.906494 
	C837.920288,1152.690063 822.616272,1159.214233 807.042908,1164.925415 
	C780.448181,1174.678467 753.386230,1183.000977 725.473877,1188.241211 
	C711.697266,1190.827515 697.972595,1193.755615 684.124146,1195.873413 
	C673.752747,1197.459595 663.216125,1197.952148 652.768738,1199.077148 
	C651.788147,1199.182861 650.920227,1200.334106 650.000000,1201.000000 
	C617.645752,1201.000000 585.291565,1201.000000 552.658142,1200.591553 
	C547.766785,1199.457153 543.168396,1198.624878 538.539917,1198.025146 
	C525.063538,1196.278687 511.387329,1195.520264 498.132355,1192.739990 
	C474.103577,1187.699829 450.023804,1182.485962 426.507721,1175.514893 
	C389.750824,1164.618530 354.332275,1150.099976 320.474030,1131.901978 
	C295.129669,1118.279907 270.790253,1103.163452 247.464523,1086.282715 
	C223.832962,1069.180786 201.548401,1050.497070 180.846771,1030.057007 
	C166.529221,1015.920471 153.121613,1000.786987 140.134628,985.400696 
	C128.758621,971.923096 118.126617,957.763550 107.889832,943.389771 
	C87.675110,915.005798 70.343735,884.878540 56.093704,853.065674 
	C49.309692,837.920654 42.785713,822.616455 37.074654,807.043091 
	C27.321850,780.448242 18.999020,753.386353 13.759007,725.473938 
	C11.172705,711.697266 8.244523,697.972656 6.126598,684.124146 
	C4.540450,673.752747 4.047886,663.216125 2.922847,652.768738 
	C2.817250,651.788147 1.665835,650.920227 0.999993,650.000000 
	C1.000000,617.645752 1.000000,585.291565 1.408421,552.658203 
	C2.542829,547.766846 3.374916,543.168396 3.974749,538.539856 
	C5.721226,525.063477 6.479756,511.387299 9.260057,498.132263 
	C14.300157,474.103577 19.513609,450.023743 26.484903,426.507812 
	C37.381496,389.750854 51.900070,354.332153 70.098289,320.473785 
	C83.720383,295.129425 98.836678,270.789978 115.717445,247.464172 
	C132.819382,223.832703 151.503067,201.548187 171.943161,180.846603 
	C186.079803,166.529099 201.213211,153.121475 216.599442,140.134476 
	C230.077057,128.758469 244.236511,118.126350 258.610413,107.889671 
	C286.994507,87.675346 317.121307,70.343170 348.934387,56.093647 
	C364.079529,49.309929 379.383636,42.785751 394.957001,37.074669 
	C421.551758,27.321821 448.613678,18.999054 476.526062,13.759008 
	C490.302734,11.172703 504.027405,8.244515 517.875854,6.126600 
	C528.247253,4.540444 538.783875,4.047893 549.231262,2.922852 
	C550.211853,2.817259 551.079773,1.665841 552.000000,0.999996 
M623.595093,486.920288 
	C602.650635,469.579346 582.529480,451.381134 564.491394,430.957794 
	C532.573730,394.819550 513.379333,353.424500 511.728271,304.645813 
	C510.675140,273.533020 515.562866,243.798096 533.026550,217.336029 
	C554.230347,185.206635 584.967651,165.779968 620.879272,154.138489 
	C656.384705,142.628708 692.694336,142.484207 729.045715,149.353653 
	C754.057495,154.080200 776.650024,164.120789 794.612061,182.938797 
	C812.686157,201.874115 825.033142,224.399902 832.645264,249.035767 
	C841.813904,278.709076 849.012573,308.993530 856.948486,339.043976 
	C859.902344,350.229370 862.529785,361.500946 865.325623,372.812256 
	C878.045776,372.812256 890.202454,372.724976 902.356384,372.871826 
	C905.513184,372.909943 905.661987,371.076477 906.077209,368.811005 
	C911.536926,339.023743 917.064209,309.248871 922.568237,279.469727 
	C929.009766,244.618149 935.423950,209.761475 941.921143,174.920288 
	C942.475037,171.950043 941.996887,169.977173 939.114746,168.420959 
	C935.023132,166.211777 931.252075,163.417725 927.219788,161.088669 
	C867.599365,126.651756 802.472717,110.239182 734.688904,103.124397 
	C692.422363,98.687981 650.191101,99.882500 608.176636,106.873322 
	C554.897461,115.738487 505.339874,133.998642 461.222534,165.573425 
	C418.480927,196.163635 386.295868,235.330048 367.635925,284.828247 
	C352.373718,325.313385 348.254425,367.258545 352.875488,410.145416 
	C357.602264,454.013062 370.774719,494.914764 395.387787,531.886475 
	C417.997284,565.848633 445.054810,595.935974 476.292145,621.935364 
	C504.048279,645.037170 533.078491,666.616943 561.708740,688.657593 
	C593.185059,712.889160 623.735046,738.023499 648.781311,769.247314 
	C685.128174,814.558960 697.751892,866.391846 687.219604,922.616760 
	C675.574341,984.783508 636.965942,1025.237915 577.190674,1044.850586 
	C541.881226,1056.435791 505.421875,1056.603638 468.920715,1051.349854 
	C446.089874,1048.063599 424.550964,1040.995972 405.709534,1027.159302 
	C383.981750,1011.203003 368.959564,989.781555 359.234680,965.188965 
	C348.735413,938.637939 340.192230,911.304382 331.079437,884.216797 
	C323.719452,862.339417 316.780945,840.320190 309.653992,818.359375 
	C296.626404,818.359375 283.877106,818.359375 270.917480,818.359375 
	C269.928589,824.846924 268.962189,831.091858 268.026398,837.341431 
	C261.839172,878.661865 255.661438,919.983704 249.474579,961.304199 
	C246.344162,982.211487 243.262863,1003.126587 240.002228,1024.013550 
	C239.466156,1027.447510 240.176636,1029.574829 243.419601,1031.166748 
	C247.292633,1033.067993 250.863998,1035.572754 254.670593,1037.621826 
	C316.902771,1071.122803 384.069733,1087.704712 453.818298,1094.827881 
	C494.214661,1098.953491 534.663452,1098.182251 575.013428,1093.119019 
	C625.039368,1086.841553 672.968079,1073.481323 716.950256,1048.565552 
	C817.912598,991.370789 865.308044,904.217651 858.635071,788.499512 
	C855.548462,734.973389 834.992615,687.485779 802.560486,645.099243 
	C776.676941,611.271179 745.709473,582.421265 712.617249,555.900513 
	C683.511841,532.574890 653.672791,510.164795 623.595093,486.920288 
z"/>
<path fill="#000000" opacity="1.000000" stroke="none" 
	d="
M551.531372,0.999996 
	C551.079773,1.665841 550.211853,2.817259 549.231262,2.922852 
	C538.783875,4.047893 528.247253,4.540444 517.875854,6.126600 
	C504.027405,8.244515 490.302734,11.172703 476.526062,13.759008 
	C448.613678,18.999054 421.551758,27.321821 394.957001,37.074669 
	C379.383636,42.785751 364.079529,49.309929 348.934387,56.093647 
	C317.121307,70.343170 286.994507,87.675346 258.610413,107.889671 
	C244.236511,118.126350 230.077057,128.758469 216.599442,140.134476 
	C201.213211,153.121475 186.079803,166.529099 171.943161,180.846603 
	C151.503067,201.548187 132.819382,223.832703 115.717445,247.464172 
	C98.836678,270.789978 83.720383,295.129425 70.098289,320.473785 
	C51.900070,354.332153 37.381496,389.750854 26.484903,426.507812 
	C19.513609,450.023743 14.300157,474.103577 9.260057,498.132263 
	C6.479756,511.387299 5.721226,525.063477 3.974749,538.539856 
	C3.374916,543.168396 2.542829,547.766846 1.408421,552.189514 
	C1.000000,368.406250 1.000000,184.812485 1.000000,1.000000 
	C184.354172,1.000000 367.708435,1.000000 551.531372,0.999996 
z"/>
<path fill="#000000" opacity="1.000000" stroke="none" 
	d="
M1201.000000,551.531372 
	C1200.334106,551.079773 1199.182739,550.211853 1199.077026,549.231262 
	C1197.951904,538.783875 1197.459351,528.247253 1195.873291,517.875793 
	C1193.755493,504.027313 1190.827393,490.302673 1188.241089,476.526001 
	C1183.000977,448.613647 1174.678345,421.551758 1164.925415,394.957062 
	C1159.214355,379.383698 1152.689941,364.079773 1145.906372,348.934540 
	C1131.657349,317.121185 1114.324463,286.994873 1094.110474,258.610596 
	C1083.874023,244.236542 1073.241577,230.077179 1061.865601,216.599594 
	C1048.878662,201.213333 1035.471069,186.079956 1021.153564,171.943329 
	C1000.451904,151.503235 978.167419,132.819443 954.535889,115.717514 
	C931.210083,98.836739 906.870544,83.720428 881.526184,70.098289 
	C847.667786,51.900005 812.249023,37.381466 775.491943,26.484804 
	C751.976013,19.513477 727.896179,14.300141 703.867432,9.260038 
	C690.612427,6.479766 676.936279,5.721233 663.459900,3.974757 
	C658.831421,3.374930 654.233093,2.542825 649.810486,1.408420 
	C833.593750,1.000000 1017.187500,1.000000 1201.000000,1.000000 
	C1201.000000,184.354172 1201.000000,367.708435 1201.000000,551.531372 
z"/>
<path fill="#000000" opacity="1.000000" stroke="none" 
	d="
M0.999993,650.468628 
	C1.665835,650.920227 2.817250,651.788147 2.922847,652.768738 
	C4.047886,663.216125 4.540450,673.752747 6.126598,684.124146 
	C8.244523,697.972656 11.172705,711.697266 13.759007,725.473938 
	C18.999020,753.386353 27.321850,780.448242 37.074654,807.043091 
	C42.785713,822.616455 49.309692,837.920654 56.093704,853.065674 
	C70.343735,884.878540 87.675110,915.005798 107.889832,943.389771 
	C118.126617,957.763550 128.758621,971.923096 140.134628,985.400696 
	C153.121613,1000.786987 166.529221,1015.920471 180.846771,1030.057007 
	C201.548401,1050.497070 223.832962,1069.180786 247.464523,1086.282715 
	C270.790253,1103.163452 295.129669,1118.279907 320.474030,1131.901978 
	C354.332275,1150.099976 389.750824,1164.618530 426.507721,1175.514893 
	C450.023804,1182.485962 474.103577,1187.699829 498.132355,1192.739990 
	C511.387329,1195.520264 525.063538,1196.278687 538.539917,1198.025146 
	C543.168396,1198.624878 547.766785,1199.457153 552.189453,1200.591553 
	C368.406250,1201.000000 184.812485,1201.000000 1.000000,1201.000000 
	C1.000000,1017.645813 1.000000,834.291565 0.999993,650.468628 
z"/>
<path fill="#000000" opacity="1.000000" stroke="none" 
	d="
M650.468628,1201.000000 
	C650.920227,1200.334106 651.788147,1199.182861 652.768738,1199.077148 
	C663.216125,1197.952148 673.752747,1197.459595 684.124146,1195.873413 
	C697.972595,1193.755615 711.697266,1190.827515 725.473877,1188.241211 
	C753.386230,1183.000977 780.448181,1174.678467 807.042908,1164.925415 
	C822.616272,1159.214233 837.920288,1152.690063 853.065491,1145.906494 
	C884.878540,1131.656860 915.005310,1114.324585 943.389526,1094.110352 
	C957.763489,1083.873779 971.922852,1073.241577 985.400513,1061.865479 
	C1000.786804,1048.878540 1015.920288,1035.470947 1030.056885,1021.153381 
	C1050.496948,1000.451660 1069.180786,978.167236 1086.282715,954.535706 
	C1103.163452,931.209900 1118.279663,906.870422 1131.901733,881.526123 
	C1150.099854,847.667725 1164.618774,812.249146 1175.515381,775.492126 
	C1182.486694,751.976196 1187.699951,727.896240 1192.740112,703.867493 
	C1195.520264,690.612488 1196.278687,676.936340 1198.025146,663.459961 
	C1198.624878,658.831482 1199.457153,654.233154 1200.591553,649.810547 
	C1201.000000,833.593750 1201.000000,1017.187500 1201.000000,1201.000000 
	C1017.645813,1201.000000 834.291565,1201.000000 650.468628,1201.000000 
z"/>
<path fill="#FFF9EE" opacity="1.000000" stroke="none" 
	d="
M623.876404,487.135315 
	C653.672791,510.164795 683.511841,532.574890 712.617249,555.900513 
	C745.709473,582.421265 776.676941,611.271179 802.560486,645.099243 
	C834.992615,687.485779 855.548462,734.973389 858.635071,788.499512 
	C865.308044,904.217651 817.912598,991.370789 716.950256,1048.565552 
	C672.968079,1073.481323 625.039368,1086.841553 575.013428,1093.119019 
	C534.663452,1098.182251 494.214661,1098.953491 453.818298,1094.827881 
	C384.069733,1087.704712 316.902771,1071.122803 254.670593,1037.621826 
	C250.863998,1035.572754 247.292633,1033.067993 243.419601,1031.166748 
	C240.176636,1029.574829 239.466156,1027.447510 240.002228,1024.013550 
	C243.262863,1003.126587 246.344162,982.211487 249.474579,961.304199 
	C255.661438,919.983704 261.839172,878.661865 268.026398,837.341431 
	C268.962189,831.091858 269.928589,824.846924 270.917480,818.359375 
	C283.877106,818.359375 296.626404,818.359375 309.653992,818.359375 
	C316.780945,840.320190 323.719452,862.339417 331.079437,884.216797 
	C340.192230,911.304382 348.735413,938.637939 359.234680,965.188965 
	C368.959564,989.781555 383.981750,1011.203003 405.709534,1027.159302 
	C424.550964,1040.995972 446.089874,1048.063599 468.920715,1051.349854 
	C505.421875,1056.603638 541.881226,1056.435791 577.190674,1044.850586 
	C636.965942,1025.237915 675.574341,984.783508 687.219604,922.616760 
	C697.751892,866.391846 685.128174,814.558960 648.781311,769.247314 
	C623.735046,738.023499 593.185059,712.889160 561.708740,688.657593 
	C533.078491,666.616943 504.048279,645.037170 476.292145,621.935364 
	C445.054810,595.935974 417.997284,565.848633 395.387787,531.886475 
	C370.774719,494.914764 357.602264,454.013062 352.875488,410.145416 
	C348.254425,367.258545 352.373718,325.313385 367.635925,284.828247 
	C386.295868,235.330048 418.480927,196.163635 461.222534,165.573425 
	C505.339874,133.998642 554.897461,115.738487 608.176636,106.873322 
	C650.191101,99.882500 692.422363,98.687981 734.688904,103.124397 
	C802.472717,110.239182 867.599365,126.651756 927.219788,161.088669 
	C931.252075,163.417725 935.023132,166.211777 939.114746,168.420959 
	C941.996887,169.977173 942.475037,171.950043 941.921143,174.920288 
	C935.423950,209.761475 929.009766,244.618149 922.568237,279.469727 
	C917.064209,309.248871 911.536926,339.023743 906.077209,368.811005 
	C905.661987,371.076477 905.513184,372.909943 902.356384,372.871826 
	C890.202454,372.724976 878.045776,372.812256 865.325623,372.812256 
	C862.529785,361.500946 859.902344,350.229370 856.948486,339.043976 
	C849.012573,308.993530 841.813904,278.709076 832.645264,249.035767 
	C825.033142,224.399902 812.686157,201.874115 794.612061,182.938797 
	C776.650024,164.120789 754.057495,154.080200 729.045715,149.353653 
	C692.694336,142.484207 656.384705,142.628708 620.879272,154.138489 
	C584.967651,165.779968 554.230347,185.206635 533.026550,217.336029 
	C515.562866,243.798096 510.675140,273.533020 511.728271,304.645813 
	C513.379333,353.424500 532.573730,394.819550 564.491394,430.957794 
	C582.529480,451.381134 602.650635,469.579346 623.876404,487.135315 
z"/>
</svg>